<svg xmlns="http://www.w3.org/2000/svg" viewBox="0 0 900 360" font-family="'Red Hat Text', system-ui, sans-serif" role="img">
<defs><marker id="a" viewBox="0 0 10 10" refX="8.5" refY="5" markerWidth="9" markerHeight="9" orient="auto-start-reverse"><path d="M0,0 L10,5 L0,10 z" fill="#555"/></marker><marker id="am" viewBox="0 0 10 10" refX="8.5" refY="5" markerWidth="9" markerHeight="9" orient="auto-start-reverse"><path d="M0,0 L10,5 L0,10 z" fill="#cc0000"/></marker></defs>
<rect x="20" y="250" width="860" height="90" rx="12" fill="#fdecec" stroke="#ddd"/>
<text x="32" y="270" font-size="12" font-weight="700" fill="#1d1d1d">one trace_id, every hop</text>
<rect x="30" y="80" width="150" height="70" rx="9" fill="#fdecec" stroke="#ee0000" stroke-width="2"/>
<text x="105.0" y="113.0" font-size="13.5" font-weight="700" fill="#111111" text-anchor="middle">FastAPI</text>
<text x="105.0" y="130.0" font-size="11.5" fill="#555555" text-anchor="middle">root span</text>
<rect x="240" y="80" width="170" height="70" rx="9" fill="#ffffff" stroke="#111111" stroke-width="2"/>
<text x="325.0" y="105.5" font-size="13.5" font-weight="700" fill="#111111" text-anchor="middle">Kafka message</text>
<text x="325.0" y="122.5" font-size="11.5" fill="#555555" text-anchor="middle">headers carry</text>
<text x="325.0" y="137.5" font-size="11.5" fill="#555555" text-anchor="middle">traceparent</text>
<rect x="470" y="80" width="150" height="70" rx="9" fill="#fdecec" stroke="#ee0000" stroke-width="2"/>
<text x="545.0" y="113.0" font-size="13.5" font-weight="700" fill="#111111" text-anchor="middle">Consumer</text>
<text x="545.0" y="130.0" font-size="11.5" fill="#555555" text-anchor="middle">child span</text>
<rect x="700" y="80" width="150" height="70" rx="9" fill="#ffffff" stroke="#111111" stroke-width="2"/>
<text x="775.0" y="113.0" font-size="13.5" font-weight="700" fill="#111111" text-anchor="middle">Postgres</text>
<text x="775.0" y="130.0" font-size="11.5" fill="#555555" text-anchor="middle">child span</text>
<rect x="105" y="270" width="120" height="50" rx="9" fill="#ffffff" stroke="#999999" stroke-width="1.5"/>
<text x="165.0" y="300.5" font-size="13.5" font-weight="700" fill="#111111" text-anchor="middle">span A</text>
<rect x="290" y="270" width="120" height="50" rx="9" fill="#ffffff" stroke="#999999" stroke-width="1.5" stroke-dasharray="6 4"/>
<text x="350.0" y="300.5" font-size="13.5" font-weight="700" fill="#111111" text-anchor="middle">inject ctx</text>
<rect x="475" y="270" width="120" height="50" rx="9" fill="#ffffff" stroke="#999999" stroke-width="1.5"/>
<text x="535.0" y="300.5" font-size="13.5" font-weight="700" fill="#111111" text-anchor="middle">span B</text>
<rect x="700" y="270" width="120" height="50" rx="9" fill="#ffffff" stroke="#999999" stroke-width="1.5"/>
<text x="760.0" y="300.5" font-size="13.5" font-weight="700" fill="#111111" text-anchor="middle">span C</text>
<path d="M180,115 L240,115" fill="none" stroke="#b8650a" stroke-width="2" marker-end="url(#am)"/>
<text x="216.0" y="109.0" font-size="11" fill="#ffffff" stroke="#ffffff" stroke-width="3" paint-order="stroke" text-anchor="middle">inject</text>
<text x="216.0" y="109.0" font-size="11" fill="#b8650a" text-anchor="middle">inject</text>
<path d="M410,115 L470,115" fill="none" stroke="#b8650a" stroke-width="2" marker-end="url(#am)"/>
<text x="446.0" y="109.0" font-size="11" fill="#ffffff" stroke="#ffffff" stroke-width="3" paint-order="stroke" text-anchor="middle">extract</text>
<text x="446.0" y="109.0" font-size="11" fill="#b8650a" text-anchor="middle">extract</text>
<path d="M620,115 L700,115" fill="none" stroke="#555" stroke-width="2" marker-end="url(#a)"/>
<text x="666.0" y="109.0" font-size="11" fill="#ffffff" stroke="#ffffff" stroke-width="3" paint-order="stroke" text-anchor="middle">child of B</text>
<text x="666.0" y="109.0" font-size="11" fill="#555" text-anchor="middle">child of B</text>
<path d="M165,150 L165,270" fill="none" stroke="#555" stroke-width="2" stroke-dasharray="5 4" marker-end="url(#a)"/>
<path d="M350,150 L350,270" fill="none" stroke="#555" stroke-width="2" stroke-dasharray="5 4" marker-end="url(#a)"/>
<path d="M535,150 L535,270" fill="none" stroke="#555" stroke-width="2" stroke-dasharray="5 4" marker-end="url(#a)"/>
<path d="M760,150 L760,270" fill="none" stroke="#555" stroke-width="2" stroke-dasharray="5 4" marker-end="url(#a)"/>
<text x="450" y="50" font-size="12" fill="#1d1d1d" text-anchor="middle">traceparent rides in the Kafka message headers, so the work after the hop joins the originating trace.</text>
</svg>