<svg xmlns="http://www.w3.org/2000/svg" viewBox="0 0 960 440" font-family="'Red Hat Text', system-ui, sans-serif" role="img">
<defs><marker id="a" viewBox="0 0 10 10" refX="8.5" refY="5" markerWidth="9" markerHeight="9" orient="auto-start-reverse"><path d="M0,0 L10,5 L0,10 z" fill="#555"/></marker><marker id="am" viewBox="0 0 10 10" refX="8.5" refY="5" markerWidth="9" markerHeight="9" orient="auto-start-reverse"><path d="M0,0 L10,5 L0,10 z" fill="#cc0000"/></marker></defs>
<rect x="170" y="50" width="770" height="240" rx="12" fill="#f7f7f7" stroke="#ddd"/>
<text x="182" y="70" font-size="12" font-weight="700" fill="#1d1d1d">compose network</text>
<rect x="170" y="330" width="770" height="80" rx="12" fill="#fdecec" stroke="#ddd"/>
<text x="182" y="350" font-size="12" font-weight="700" fill="#1d1d1d">Postgres · appdb</text>
<rect x="20" y="150" width="130" height="70" rx="9" fill="#ffffff" stroke="#999999" stroke-width="1.5"/>
<text x="85.0" y="183.0" font-size="13.5" font-weight="700" fill="#111111" text-anchor="middle">Client</text>
<text x="85.0" y="200.0" font-size="11.5" fill="#555555" text-anchor="middle">curl / Postman</text>
<rect x="190" y="150" width="150" height="70" rx="9" fill="#fdecec" stroke="#ee0000" stroke-width="2"/>
<text x="265.0" y="183.0" font-size="13.5" font-weight="700" fill="#111111" text-anchor="middle">order</text>
<text x="265.0" y="200.0" font-size="11.5" fill="#555555" text-anchor="middle">REST :8080</text>
<rect x="410" y="80" width="150" height="60" rx="9" fill="#ffffff" stroke="#111111" stroke-width="2"/>
<text x="485.0" y="108.0" font-size="13.5" font-weight="700" fill="#111111" text-anchor="middle">inventory</text>
<text x="485.0" y="125.0" font-size="11.5" fill="#555555" text-anchor="middle">gRPC :50051</text>
<rect x="410" y="170" width="150" height="60" rx="9" fill="#ffffff" stroke="#111111" stroke-width="2"/>
<text x="485.0" y="198.0" font-size="13.5" font-weight="700" fill="#111111" text-anchor="middle">payment</text>
<text x="485.0" y="215.0" font-size="11.5" fill="#555555" text-anchor="middle">gRPC :50052</text>
<rect x="620" y="150" width="150" height="70" rx="9" fill="#ffffff" stroke="#111111" stroke-width="2"/>
<text x="695.0" y="183.0" font-size="13.5" font-weight="700" fill="#111111" text-anchor="middle">Kafka</text>
<text x="695.0" y="200.0" font-size="11.5" fill="#555555" text-anchor="middle">order.placed</text>
<rect x="800" y="90" width="140" height="56" rx="9" fill="#ffffff" stroke="#111111" stroke-width="2"/>
<text x="870.0" y="116.0" font-size="13.5" font-weight="700" fill="#111111" text-anchor="middle">shipping</text>
<text x="870.0" y="133.0" font-size="11.5" fill="#555555" text-anchor="middle">consumer</text>
<rect x="800" y="184" width="140" height="56" rx="9" fill="#ffffff" stroke="#111111" stroke-width="2"/>
<text x="870.0" y="210.0" font-size="13.5" font-weight="700" fill="#111111" text-anchor="middle">notification</text>
<text x="870.0" y="227.0" font-size="11.5" fill="#555555" text-anchor="middle">consumer</text>
<rect x="20" y="340" width="150" height="60" rx="9" fill="#fdecec" stroke="#ee0000" stroke-width="2"/>
<text x="95.0" y="368.0" font-size="13.5" font-weight="700" fill="#111111" text-anchor="middle">review</text>
<text x="95.0" y="385.0" font-size="11.5" fill="#555555" text-anchor="middle">GraphQL :8081</text>
<path d="M150,185 L190,185" fill="none" stroke="#b8650a" stroke-width="2" marker-end="url(#am)"/>
<text x="176.0" y="179.0" font-size="11" fill="#ffffff" stroke="#ffffff" stroke-width="3" paint-order="stroke" text-anchor="middle">POST /orders</text>
<text x="176.0" y="179.0" font-size="11" fill="#b8650a" text-anchor="middle">POST /orders</text>
<path d="M340,175 L410,110" fill="none" stroke="#555" stroke-width="2" marker-end="url(#a)"/>
<text x="381.0" y="136.5" font-size="11" fill="#ffffff" stroke="#ffffff" stroke-width="3" paint-order="stroke" text-anchor="middle">Reserve</text>
<text x="381.0" y="136.5" font-size="11" fill="#555" text-anchor="middle">Reserve</text>
<path d="M340,190 L410,200" fill="none" stroke="#555" stroke-width="2" marker-end="url(#a)"/>
<text x="381.0" y="205.0" font-size="11" fill="#ffffff" stroke="#ffffff" stroke-width="3" paint-order="stroke" text-anchor="middle">Authorize</text>
<text x="381.0" y="205.0" font-size="11" fill="#555" text-anchor="middle">Authorize</text>
<path d="M560,185 L620,185" fill="none" stroke="#b8650a" stroke-width="2" marker-end="url(#am)"/>
<text x="596.0" y="179.0" font-size="11" fill="#ffffff" stroke="#ffffff" stroke-width="3" paint-order="stroke" text-anchor="middle">publish</text>
<text x="596.0" y="179.0" font-size="11" fill="#b8650a" text-anchor="middle">publish</text>
<path d="M770,175 L800,118" fill="none" stroke="#555" stroke-width="2" marker-end="url(#a)"/>
<text x="791.0" y="140.5" font-size="11" fill="#ffffff" stroke="#ffffff" stroke-width="3" paint-order="stroke" text-anchor="middle">consume</text>
<text x="791.0" y="140.5" font-size="11" fill="#555" text-anchor="middle">consume</text>
<path d="M770,195 L800,210" fill="none" stroke="#555" stroke-width="2" marker-end="url(#a)"/>
<text x="791.0" y="214.5" font-size="11" fill="#ffffff" stroke="#ffffff" stroke-width="3" paint-order="stroke" text-anchor="middle">consume</text>
<text x="791.0" y="214.5" font-size="11" fill="#555" text-anchor="middle">consume</text>
<path d="M95,220 L95,340" fill="none" stroke="#b8650a" stroke-width="2" marker-end="url(#am)"/>
<text x="61.0" y="274.0" font-size="11" fill="#ffffff" stroke="#ffffff" stroke-width="3" paint-order="stroke" text-anchor="middle">GraphQL</text>
<text x="61.0" y="274.0" font-size="11" fill="#b8650a" text-anchor="middle">GraphQL</text>
<path d="M265,220 L265,330" fill="none" stroke="#555" stroke-width="2" stroke-dasharray="5 4" marker-end="url(#a)"/>
<path d="M485,230 L485,330" fill="none" stroke="#555" stroke-width="2" stroke-dasharray="5 4" marker-end="url(#a)"/>
<path d="M700,220 L700,330" fill="none" stroke="#555" stroke-width="2" stroke-dasharray="5 4" marker-end="url(#a)"/>
<path d="M870,240 L870,330" fill="none" stroke="#555" stroke-width="2" stroke-dasharray="5 4" marker-end="url(#a)"/>
<path d="M95,400 L170,370" fill="none" stroke="#555" stroke-width="2" stroke-dasharray="5 4" marker-end="url(#a)"/>
<text x="450" y="36" font-size="12" fill="#1d1d1d" text-anchor="middle">One POST /orders crosses REST, two gRPC calls, Kafka, and Postgres; review serves a GraphQL read path. The trace must follow all of it.</text>
</svg>