<svg xmlns="http://www.w3.org/2000/svg" viewBox="0 0 960 390" font-family="'Red Hat Text', system-ui, sans-serif" role="img">
<defs><marker id="a" viewBox="0 0 10 10" refX="8.5" refY="5" markerWidth="9" markerHeight="9" orient="auto-start-reverse"><path d="M0,0 L10,5 L0,10 z" fill="#555"/></marker><marker id="am" viewBox="0 0 10 10" refX="8.5" refY="5" markerWidth="9" markerHeight="9" orient="auto-start-reverse"><path d="M0,0 L10,5 L0,10 z" fill="#cc0000"/></marker></defs>
<rect x="20" y="50" width="920" height="320" rx="12" fill="#f7f7f7" stroke="#ddd"/>
<text x="32" y="70" font-size="12" font-weight="700" fill="#1d1d1d">compose network</text>
<rect x="540" y="80" width="400" height="240" rx="12" fill="#fafafa" stroke="#ddd"/>
<text x="552" y="100" font-size="12" font-weight="700" fill="#1d1d1d">grafana/otel-lgtm · one image</text>
<rect x="50" y="105" width="200" height="95" rx="9" fill="#fdecec" stroke="#ee0000" stroke-width="2"/>
<text x="150.0" y="143.0" font-size="13.5" font-weight="700" fill="#111111" text-anchor="middle">six services</text>
<text x="150.0" y="160.0" font-size="11.5" fill="#555555" text-anchor="middle">REST · gRPC · GraphQL · Kafka</text>
<text x="150.0" y="175.0" font-size="11.5" fill="#555555" text-anchor="middle">host :8080 / :8081</text>
<rect x="300" y="215" width="150" height="55" rx="9" fill="#ffffff" stroke="#111111" stroke-width="2"/>
<text x="375.0" y="240.5" font-size="13.5" font-weight="700" fill="#111111" text-anchor="middle">Kafka</text>
<text x="375.0" y="257.5" font-size="11.5" fill="#555555" text-anchor="middle">order.placed</text>
<rect x="300" y="295" width="150" height="55" rx="9" fill="#ffffff" stroke="#111111" stroke-width="2"/>
<text x="375.0" y="320.5" font-size="13.5" font-weight="700" fill="#111111" text-anchor="middle">Postgres</text>
<text x="375.0" y="337.5" font-size="11.5" fill="#555555" text-anchor="middle">appdb</text>
<rect x="565" y="110" width="160" height="70" rx="9" fill="#ffffff" stroke="#999999" stroke-width="1.5"/>
<text x="645.0" y="143.0" font-size="13.5" font-weight="700" fill="#111111" text-anchor="middle">OTel Collector</text>
<text x="645.0" y="160.0" font-size="11.5" fill="#555555" text-anchor="middle">OTLP/HTTP in :4318</text>
<rect x="770" y="110" width="150" height="70" rx="9" fill="#ffffff" stroke="#111111" stroke-width="2"/>
<text x="845.0" y="143.0" font-size="13.5" font-weight="700" fill="#111111" text-anchor="middle">Tempo · Mimir · Loki</text>
<text x="845.0" y="160.0" font-size="11.5" fill="#555555" text-anchor="middle">traces · metrics · logs</text>
<rect x="650" y="240" width="200" height="60" rx="9" fill="#111111" stroke="#111111" stroke-width="2"/>
<text x="750.0" y="268.0" font-size="13.5" font-weight="700" fill="#ffffff" text-anchor="middle">Grafana</text>
<text x="750.0" y="285.0" font-size="11.5" fill="#dddddd" text-anchor="middle">:3000 — one UI for all three</text>
<path d="M250,145 L565,145" fill="none" stroke="#b8650a" stroke-width="2" marker-end="url(#am)"/>
<text x="413.5" y="139.0" font-size="11" fill="#ffffff" stroke="#ffffff" stroke-width="3" paint-order="stroke" text-anchor="middle">OTLP/HTTP :4318</text>
<text x="413.5" y="139.0" font-size="11" fill="#b8650a" text-anchor="middle">OTLP/HTTP :4318</text>
<path d="M160,200 L310,230" fill="none" stroke="#555" stroke-width="2" marker-end="url(#a)"/>
<text x="241.0" y="209.0" font-size="11" fill="#ffffff" stroke="#ffffff" stroke-width="3" paint-order="stroke" text-anchor="middle">events</text>
<text x="241.0" y="209.0" font-size="11" fill="#555" text-anchor="middle">events</text>
<path d="M135,200 L305,305" fill="none" stroke="#555" stroke-width="2" stroke-dasharray="5 4" marker-end="url(#a)"/>
<text x="210.0" y="246.5" font-size="11" fill="#ffffff" stroke="#ffffff" stroke-width="3" paint-order="stroke" text-anchor="middle">SQL</text>
<text x="210.0" y="246.5" font-size="11" fill="#555" text-anchor="middle">SQL</text>
<path d="M725,145 L770,145" fill="none" stroke="#b8650a" stroke-width="2" marker-end="url(#am)"/>
<path d="M845,180 L800,240" fill="none" stroke="#555" stroke-width="2" marker-end="url(#a)"/>
<text x="828.5" y="204.0" font-size="11" fill="#ffffff" stroke="#ffffff" stroke-width="3" paint-order="stroke" text-anchor="middle">query</text>
<text x="828.5" y="204.0" font-size="11" fill="#555" text-anchor="middle">query</text>
<text x="480" y="32" font-size="12" fill="#1d1d1d" text-anchor="middle">What `podman compose up` brings up: the services, Postgres and Kafka, and the bundled otel-lgtm backend (Collector → stores → Grafana).</text>
</svg>