<svg xmlns="http://www.w3.org/2000/svg" viewBox="0 0 920 340" font-family="'Red Hat Text', system-ui, sans-serif" role="img">
<defs><marker id="a" viewBox="0 0 10 10" refX="8.5" refY="5" markerWidth="9" markerHeight="9" orient="auto-start-reverse"><path d="M0,0 L10,5 L0,10 z" fill="#555"/></marker><marker id="am" viewBox="0 0 10 10" refX="8.5" refY="5" markerWidth="9" markerHeight="9" orient="auto-start-reverse"><path d="M0,0 L10,5 L0,10 z" fill="#cc0000"/></marker></defs>
<rect x="40" y="135" width="160" height="90" rx="9" fill="#fdecec" stroke="#ee0000" stroke-width="2"/>
<text x="120.0" y="178.0" font-size="13.5" font-weight="700" fill="#111111" text-anchor="middle">incoming requests</text>
<text x="120.0" y="195.0" font-size="11.5" fill="#555555" text-anchor="middle">POST /orders</text>
<rect x="300" y="70" width="220" height="72" rx="9" fill="#ffffff" stroke="#111111" stroke-width="2"/>
<text x="410.0" y="104.0" font-size="13.5" font-weight="700" fill="#111111" text-anchor="middle">one span per request</text>
<text x="410.0" y="121.0" font-size="11.5" fill="#555555" text-anchor="middle">per-event</text>
<rect x="600" y="74" width="150" height="64" rx="9" fill="#ffffff" stroke="#111111" stroke-width="2"/>
<text x="675.0" y="104.0" font-size="13.5" font-weight="700" fill="#111111" text-anchor="middle">Tempo</text>
<text x="675.0" y="121.0" font-size="11.5" fill="#555555" text-anchor="middle">traces</text>
<rect x="300" y="210" width="220" height="84" rx="9" fill="#ffffff" stroke="#111111" stroke-width="2"/>
<text x="410.0" y="250.0" font-size="13.5" font-weight="700" fill="#111111" text-anchor="middle">duration histogram</text>
<text x="410.0" y="267.0" font-size="11.5" fill="#555555" text-anchor="middle">periodic aggregate · p50·p95·p99</text>
<rect x="600" y="218" width="150" height="64" rx="9" fill="#ffffff" stroke="#111111" stroke-width="2"/>
<text x="675.0" y="248.0" font-size="13.5" font-weight="700" fill="#111111" text-anchor="middle">Mimir</text>
<text x="675.0" y="265.0" font-size="11.5" fill="#555555" text-anchor="middle">rate · errors · p99</text>
<path d="M200,160 L300,106" fill="none" stroke="#555" stroke-width="2" marker-end="url(#a)"/>
<text x="256.0" y="127.0" font-size="11" fill="#ffffff" stroke="#ffffff" stroke-width="3" paint-order="stroke" text-anchor="middle">record a span</text>
<text x="256.0" y="127.0" font-size="11" fill="#555" text-anchor="middle">record a span</text>
<path d="M200,200 L300,252" fill="none" stroke="#555" stroke-width="2" marker-end="url(#a)"/>
<text x="256.0" y="236.0" font-size="11" fill="#ffffff" stroke="#ffffff" stroke-width="3" paint-order="stroke" text-anchor="middle">+ record duration</text>
<text x="256.0" y="236.0" font-size="11" fill="#555" text-anchor="middle">+ record duration</text>
<path d="M520,106 L600,106" fill="none" stroke="#555" stroke-width="2" marker-end="url(#a)"/>
<path d="M520,252 L600,250" fill="none" stroke="#555" stroke-width="2" marker-end="url(#a)"/>
<path d="M410,210 L410,142" fill="none" stroke="#b8650a" stroke-width="2" marker-end="url(#am)"/>
<text x="480.0" y="170.0" font-size="11" fill="#ffffff" stroke="#ffffff" stroke-width="3" paint-order="stroke" text-anchor="middle">exemplar → trace_id</text>
<text x="480.0" y="170.0" font-size="11" fill="#b8650a" text-anchor="middle">exemplar → trace_id</text>
<text x="460" y="32" font-size="12" fill="#1d1d1d" text-anchor="middle">One request, two shapes: a per-event span and a periodic aggregate. The exemplar links a histogram bucket back to a real trace.</text>
</svg>