<svg xmlns="http://www.w3.org/2000/svg" viewBox="0 0 900 340" font-family="'Red Hat Text', system-ui, sans-serif" role="img">
<defs><marker id="a" viewBox="0 0 10 10" refX="8.5" refY="5" markerWidth="9" markerHeight="9" orient="auto-start-reverse"><path d="M0,0 L10,5 L0,10 z" fill="#555"/></marker><marker id="am" viewBox="0 0 10 10" refX="8.5" refY="5" markerWidth="9" markerHeight="9" orient="auto-start-reverse"><path d="M0,0 L10,5 L0,10 z" fill="#cc0000"/></marker></defs>
<rect x="30" y="90" width="250" height="180" rx="9" fill="#ffffff" stroke="#111111" stroke-width="2"/>
<text x="155.0" y="163.0" font-size="13.5" font-weight="700" fill="#111111" text-anchor="middle">Auto</text>
<text x="155.0" y="180.0" font-size="11.5" fill="#555555" text-anchor="middle">opentelemetry-instrument</text>
<text x="155.0" y="195.0" font-size="11.5" fill="#555555" text-anchor="middle">framework + library spans</text>
<text x="155.0" y="210.0" font-size="11.5" fill="#555555" text-anchor="middle">zero code change</text>
<rect x="325" y="90" width="250" height="180" rx="9" fill="#ffffff" stroke="#111111" stroke-width="2"/>
<text x="450.0" y="163.0" font-size="13.5" font-weight="700" fill="#111111" text-anchor="middle">Custom</text>
<text x="450.0" y="180.0" font-size="11.5" fill="#555555" text-anchor="middle">manual API</text>
<text x="450.0" y="195.0" font-size="11.5" fill="#555555" text-anchor="middle">your business spans</text>
<text x="450.0" y="210.0" font-size="11.5" fill="#555555" text-anchor="middle">attributes you choose</text>
<rect x="620" y="90" width="250" height="180" rx="9" fill="#fdecec" stroke="#ee0000" stroke-width="2"/>
<text x="745.0" y="163.0" font-size="13.5" font-weight="700" fill="#111111" text-anchor="middle">Hybrid</text>
<text x="745.0" y="180.0" font-size="11.5" fill="#555555" text-anchor="middle">auto + custom together</text>
<text x="745.0" y="195.0" font-size="11.5" fill="#555555" text-anchor="middle">real-world default</text>
<text x="745.0" y="210.0" font-size="11.5" fill="#555555" text-anchor="middle">mind the duplicate span</text>
<path d="M280,180 L325,180" fill="none" stroke="#555" stroke-width="2" marker-end="url(#a)"/>
<path d="M575,180 L620,180" fill="none" stroke="#b8650a" stroke-width="2" marker-end="url(#am)"/>
<text x="155" y="60" font-size="12" fill="#1d1d1d" text-anchor="middle">breadth, for free</text>
<text x="450" y="60" font-size="12" fill="#1d1d1d" text-anchor="middle">depth, where it matters</text>
<text x="745" y="60" font-size="12" fill="#1d1d1d" text-anchor="middle" font-weight="700">both</text>
</svg>