<svg xmlns="http://www.w3.org/2000/svg" viewBox="0 0 900 360" font-family="'Red Hat Text', system-ui, sans-serif" role="img">
<defs><marker id="a" viewBox="0 0 10 10" refX="8.5" refY="5" markerWidth="9" markerHeight="9" orient="auto-start-reverse"><path d="M0,0 L10,5 L0,10 z" fill="#555"/></marker><marker id="am" viewBox="0 0 10 10" refX="8.5" refY="5" markerWidth="9" markerHeight="9" orient="auto-start-reverse"><path d="M0,0 L10,5 L0,10 z" fill="#cc0000"/></marker></defs>
<rect x="250" y="60" width="420" height="250" rx="12" fill="#f7f7f7" stroke="#ddd"/>
<text x="262" y="80" font-size="12" font-weight="700" fill="#1d1d1d">compose network</text>
<rect x="30" y="150" width="150" height="70" rx="9" fill="#ffffff" stroke="#999999" stroke-width="1.5"/>
<text x="105.0" y="183.0" font-size="13.5" font-weight="700" fill="#111111" text-anchor="middle">Client</text>
<text x="105.0" y="200.0" font-size="11.5" fill="#555555" text-anchor="middle">curl / hey</text>
<rect x="270" y="150" width="150" height="70" rx="9" fill="#fdecec" stroke="#ee0000" stroke-width="2"/>
<text x="345.0" y="183.0" font-size="13.5" font-weight="700" fill="#111111" text-anchor="middle">FastAPI</text>
<text x="345.0" y="200.0" font-size="11.5" fill="#555555" text-anchor="middle">produce + consume</text>
<rect x="270" y="80" width="380" height="44" rx="9" fill="#ffffff" stroke="#111111" stroke-width="2"/>
<text x="460.0" y="107.5" font-size="13.5" font-weight="700" fill="#111111" text-anchor="middle">Kafka  ·  requests topic</text>
<rect x="270" y="246" width="380" height="44" rx="9" fill="#ffffff" stroke="#111111" stroke-width="2"/>
<text x="460.0" y="273.5" font-size="13.5" font-weight="700" fill="#111111" text-anchor="middle">Kafka  ·  replies topic</text>
<rect x="500" y="150" width="150" height="70" rx="9" fill="#fdecec" stroke="#ee0000" stroke-width="2"/>
<text x="575.0" y="183.0" font-size="13.5" font-weight="700" fill="#111111" text-anchor="middle">Consumer</text>
<text x="575.0" y="200.0" font-size="11.5" fill="#555555" text-anchor="middle">does the work</text>
<rect x="720" y="150" width="150" height="70" rx="9" fill="#ffffff" stroke="#111111" stroke-width="2"/>
<text x="795.0" y="183.0" font-size="13.5" font-weight="700" fill="#111111" text-anchor="middle">Postgres</text>
<text x="795.0" y="200.0" font-size="11.5" fill="#555555" text-anchor="middle">read + write</text>
<path d="M180,185 L270,185" fill="none" stroke="#b8650a" stroke-width="2" marker-end="url(#am)"/>
<text x="231.0" y="179.0" font-size="11" fill="#ffffff" stroke="#ffffff" stroke-width="3" paint-order="stroke" text-anchor="middle">POST</text>
<text x="231.0" y="179.0" font-size="11" fill="#b8650a" text-anchor="middle">POST</text>
<path d="M345,150 L345,124" fill="none" stroke="#555" stroke-width="2" marker-end="url(#a)"/>
<text x="650.0" y="131.0" font-size="11" fill="#ffffff" stroke="#ffffff" stroke-width="3" paint-order="stroke" text-anchor="middle">publish</text>
<text x="650.0" y="131.0" font-size="11" fill="#555" text-anchor="middle">publish</text>
<path d="M460,102 L575,150" fill="none" stroke="#555" stroke-width="2" marker-end="url(#a)"/>
<text x="523.5" y="244.0" font-size="11" fill="#ffffff" stroke="#ffffff" stroke-width="3" paint-order="stroke" text-anchor="middle">consume</text>
<text x="523.5" y="244.0" font-size="11" fill="#555" text-anchor="middle">consume</text>
<path d="M650,185 L720,185" fill="none" stroke="#b8650a" stroke-width="2" marker-end="url(#am)"/>
<text x="691.0" y="179.0" font-size="11" fill="#ffffff" stroke="#ffffff" stroke-width="3" paint-order="stroke" text-anchor="middle">SQL</text>
<text x="691.0" y="179.0" font-size="11" fill="#b8650a" text-anchor="middle">SQL</text>
<path d="M720,200 L650,200" fill="none" stroke="#555" stroke-width="2" marker-end="url(#a)"/>
<path d="M575,220 L460,268" fill="none" stroke="#555" stroke-width="2" marker-end="url(#a)"/>
<text x="1077.5" y="494.0" font-size="11" fill="#ffffff" stroke="#ffffff" stroke-width="3" paint-order="stroke" text-anchor="middle">publish reply</text>
<text x="1077.5" y="494.0" font-size="11" fill="#555" text-anchor="middle">publish reply</text>
<path d="M345,246 L345,220" fill="none" stroke="#555" stroke-width="2" marker-end="url(#a)"/>
<text x="645.0" y="471.0" font-size="11" fill="#ffffff" stroke="#ffffff" stroke-width="3" paint-order="stroke" text-anchor="middle">consume</text>
<text x="645.0" y="471.0" font-size="11" fill="#555" text-anchor="middle">consume</text>
<path d="M270,205 L180,205" fill="none" stroke="#555" stroke-width="2" marker-end="url(#a)"/>
<text x="231.0" y="199.0" font-size="11" fill="#ffffff" stroke="#ffffff" stroke-width="3" paint-order="stroke" text-anchor="middle">200 OK</text>
<text x="231.0" y="199.0" font-size="11" fill="#555" text-anchor="middle">200 OK</text>
<text x="450" y="36" font-size="12" fill="#1d1d1d" text-anchor="middle">One HTTP request, two Kafka hops, a database round trip, and back — the chain the trace must follow.</text>
</svg>