<svg xmlns="http://www.w3.org/2000/svg" viewBox="0 0 900 360" font-family="'Red Hat Text', system-ui, sans-serif" role="img">
<defs><marker id="a" viewBox="0 0 10 10" refX="8.5" refY="5" markerWidth="9" markerHeight="9" orient="auto-start-reverse"><path d="M0,0 L10,5 L0,10 z" fill="#555"/></marker><marker id="am" viewBox="0 0 10 10" refX="8.5" refY="5" markerWidth="9" markerHeight="9" orient="auto-start-reverse"><path d="M0,0 L10,5 L0,10 z" fill="#cc0000"/></marker></defs>
<rect x="40" y="150" width="210" height="84" rx="9" fill="#fdecec" stroke="#ee0000" stroke-width="2"/>
<text x="145.0" y="182.5" font-size="13.5" font-weight="700" fill="#111111" text-anchor="middle">span: Authorize</text>
<text x="145.0" y="199.5" font-size="11.5" fill="#555555" text-anchor="middle">820 ms — but where?</text>
<text x="145.0" y="214.5" font-size="11.5" fill="#555555" text-anchor="middle">(Tempo)</text>
<rect x="520" y="120" width="330" height="28" rx="9" fill="#ffffff" stroke="#111111" stroke-width="2"/>
<text x="685.0" y="139.5" font-size="13.5" font-weight="700" fill="#111111" text-anchor="middle">serve (request)</text>
<rect x="520" y="150" width="280" height="28" rx="9" fill="#ffffff" stroke="#111111" stroke-width="2"/>
<text x="660.0" y="169.5" font-size="13.5" font-weight="700" fill="#111111" text-anchor="middle">Authorize</text>
<rect x="520" y="180" width="180" height="28" rx="9" fill="#fdecec" stroke="#ee0000" stroke-width="2"/>
<text x="610.0" y="199.5" font-size="13.5" font-weight="700" fill="#111111" text-anchor="middle">serialize 55%</text>
<rect x="700" y="180" width="100" height="28" rx="9" fill="#ffffff" stroke="#999999" stroke-width="1.5"/>
<text x="750.0" y="199.5" font-size="13.5" font-weight="700" fill="#111111" text-anchor="middle">db.execute 30%</text>
<path d="M250,188 L520,160" fill="none" stroke="#b8650a" stroke-width="2" marker-end="url(#am)"/>
<text x="391.0" y="162.0" font-size="11" fill="#ffffff" stroke="#ffffff" stroke-width="3" paint-order="stroke" text-anchor="middle">Traces → Profiles · same service + time window</text>
<text x="391.0" y="162.0" font-size="11" fill="#b8650a" text-anchor="middle">Traces → Profiles · same service + time window</text>
<text x="690" y="104" font-size="12" fill="#1d1d1d" text-anchor="middle">CPU flame graph (Pyroscope)</text>
<text x="450" y="320" font-size="12" fill="#1d1d1d" text-anchor="middle">Traces localise the slow span; the profile shows which functions burned the CPU inside it.</text>
</svg>