<svg xmlns="http://www.w3.org/2000/svg" viewBox="0 0 900 430" font-family="'Red Hat Text', system-ui, sans-serif" role="img">
<defs><marker id="a" viewBox="0 0 10 10" refX="8.5" refY="5" markerWidth="9" markerHeight="9" orient="auto-start-reverse"><path d="M0,0 L10,5 L0,10 z" fill="#555"/></marker><marker id="am" viewBox="0 0 10 10" refX="8.5" refY="5" markerWidth="9" markerHeight="9" orient="auto-start-reverse"><path d="M0,0 L10,5 L0,10 z" fill="#cc0000"/></marker></defs>
<rect x="60" y="150" width="150" height="62" rx="9" fill="#fdecec" stroke="#ee0000" stroke-width="2"/>
<text x="135.0" y="179.0" font-size="13.5" font-weight="700" fill="#111111" text-anchor="middle">order</text>
<text x="135.0" y="196.0" font-size="11.5" fill="#555555" text-anchor="middle">/orders · REST</text>
<rect x="60" y="330" width="150" height="48" rx="9" fill="#ffffff" stroke="#999999" stroke-width="1.5"/>
<text x="135.0" y="359.5" font-size="13.5" font-weight="700" fill="#111111" text-anchor="middle">postgres</text>
<rect x="360" y="70" width="150" height="52" rx="9" fill="#ffffff" stroke="#111111" stroke-width="2"/>
<text x="435.0" y="94.0" font-size="13.5" font-weight="700" fill="#111111" text-anchor="middle">inventory</text>
<text x="435.0" y="111.0" font-size="11.5" fill="#555555" text-anchor="middle">gRPC</text>
<rect x="360" y="158" width="150" height="52" rx="9" fill="#ffffff" stroke="#111111" stroke-width="2"/>
<text x="435.0" y="182.0" font-size="13.5" font-weight="700" fill="#111111" text-anchor="middle">payment</text>
<text x="435.0" y="199.0" font-size="11.5" fill="#555555" text-anchor="middle">gRPC</text>
<rect x="360" y="246" width="150" height="52" rx="9" fill="#ffffff" stroke="#999999" stroke-width="1.5"/>
<text x="435.0" y="270.0" font-size="13.5" font-weight="700" fill="#111111" text-anchor="middle">kafka</text>
<text x="435.0" y="287.0" font-size="11.5" fill="#555555" text-anchor="middle">order.placed</text>
<rect x="620" y="212" width="150" height="50" rx="9" fill="#ffffff" stroke="#111111" stroke-width="2"/>
<text x="695.0" y="242.5" font-size="13.5" font-weight="700" fill="#111111" text-anchor="middle">shipping</text>
<rect x="620" y="288" width="150" height="50" rx="9" fill="#ffffff" stroke="#111111" stroke-width="2"/>
<text x="695.0" y="318.5" font-size="13.5" font-weight="700" fill="#111111" text-anchor="middle">notification</text>
<path d="M210,172 L360,96" fill="none" stroke="#b8650a" stroke-width="2" marker-end="url(#am)"/>
<text x="291.0" y="124.0" font-size="11" fill="#ffffff" stroke="#ffffff" stroke-width="3" paint-order="stroke" text-anchor="middle">45 rps · 0% err</text>
<text x="291.0" y="124.0" font-size="11" fill="#b8650a" text-anchor="middle">45 rps · 0% err</text>
<path d="M210,184 L360,184" fill="none" stroke="#b8650a" stroke-width="2" marker-end="url(#am)"/>
<text x="291.0" y="174.0" font-size="11" fill="#ffffff" stroke="#ffffff" stroke-width="3" paint-order="stroke" text-anchor="middle">45 rps · 2% err</text>
<text x="291.0" y="174.0" font-size="11" fill="#b8650a" text-anchor="middle">45 rps · 2% err</text>
<path d="M210,198 L360,272" fill="none" stroke="#555" stroke-width="2" marker-end="url(#a)"/>
<text x="291.0" y="229.0" font-size="11" fill="#ffffff" stroke="#ffffff" stroke-width="3" paint-order="stroke" text-anchor="middle">publish</text>
<text x="291.0" y="229.0" font-size="11" fill="#555" text-anchor="middle">publish</text>
<path d="M510,272 L620,237" fill="none" stroke="#555" stroke-width="2" marker-end="url(#a)"/>
<text x="571.0" y="248.5" font-size="11" fill="#ffffff" stroke="#ffffff" stroke-width="3" paint-order="stroke" text-anchor="middle">consume</text>
<text x="571.0" y="248.5" font-size="11" fill="#555" text-anchor="middle">consume</text>
<path d="M510,282 L620,313" fill="none" stroke="#555" stroke-width="2" marker-end="url(#a)"/>
<text x="571.0" y="291.5" font-size="11" fill="#ffffff" stroke="#ffffff" stroke-width="3" paint-order="stroke" text-anchor="middle">consume</text>
<text x="571.0" y="291.5" font-size="11" fill="#555" text-anchor="middle">consume</text>
<path d="M135,212 L135,330" fill="none" stroke="#555" stroke-width="2" stroke-dasharray="5 4" marker-end="url(#a)"/>
<text x="165.0" y="265.0" font-size="11" fill="#ffffff" stroke="#ffffff" stroke-width="3" paint-order="stroke" text-anchor="middle">db writes</text>
<text x="165.0" y="265.0" font-size="11" fill="#555" text-anchor="middle">db writes</text>
<text x="450" y="32" font-size="13" fill="#1d1d1d" text-anchor="middle">The live service graph — request rate, error rate, and latency on every edge</text>
<text x="450" y="410" font-size="12" fill="#1d1d1d" text-anchor="middle">Built by Tempo&#x27;s metrics-generator from span relationships — no service mesh, no sidecars, no Kubernetes.</text>
</svg>