<svg xmlns="http://www.w3.org/2000/svg" viewBox="0 0 900 360" font-family="'Red Hat Text', system-ui, sans-serif" role="img">
<defs><marker id="a" viewBox="0 0 10 10" refX="8.5" refY="5" markerWidth="9" markerHeight="9" orient="auto-start-reverse"><path d="M0,0 L10,5 L0,10 z" fill="#555"/></marker><marker id="am" viewBox="0 0 10 10" refX="8.5" refY="5" markerWidth="9" markerHeight="9" orient="auto-start-reverse"><path d="M0,0 L10,5 L0,10 z" fill="#cc0000"/></marker></defs>
<rect x="20" y="70" width="250" height="250" rx="12" fill="#fafafa" stroke="#ddd"/>
<text x="32" y="90" font-size="12" font-weight="700" fill="#1d1d1d">head sampling</text>
<rect x="470" y="70" width="410" height="250" rx="12" fill="#fdecec" stroke="#ddd"/>
<text x="482" y="90" font-size="12" font-weight="700" fill="#1d1d1d">tail sampling</text>
<rect x="50" y="120" width="190" height="70" rx="9" fill="#fdecec" stroke="#ee0000" stroke-width="2"/>
<text x="145.0" y="153.0" font-size="13.5" font-weight="700" fill="#111111" text-anchor="middle">SDK</text>
<text x="145.0" y="170.0" font-size="11.5" fill="#555555" text-anchor="middle">decides up front</text>
<rect x="50" y="220" width="190" height="70" rx="9" fill="#ffffff" stroke="#999999" stroke-width="1.5" stroke-dasharray="6 4"/>
<text x="145.0" y="253.0" font-size="13.5" font-weight="700" fill="#111111" text-anchor="middle">dropped before</text>
<text x="145.0" y="270.0" font-size="11.5" fill="#555555" text-anchor="middle">the trace exists</text>
<rect x="300" y="150" width="130" height="60" rx="9" fill="#ffffff" stroke="#999999" stroke-width="1.5"/>
<text x="365.0" y="178.0" font-size="13.5" font-weight="700" fill="#111111" text-anchor="middle">all spans</text>
<text x="365.0" y="195.0" font-size="11.5" fill="#555555" text-anchor="middle">sent</text>
<rect x="500" y="150" width="170" height="70" rx="9" fill="#ffffff" stroke="#111111" stroke-width="2"/>
<text x="585.0" y="183.0" font-size="13.5" font-weight="700" fill="#111111" text-anchor="middle">Collector</text>
<text x="585.0" y="200.0" font-size="11.5" fill="#555555" text-anchor="middle">buffers full trace</text>
<rect x="710" y="110" width="150" height="55" rx="9" fill="#fdecec" stroke="#ee0000" stroke-width="2"/>
<text x="785.0" y="135.5" font-size="13.5" font-weight="700" fill="#111111" text-anchor="middle">keep errors</text>
<text x="785.0" y="152.5" font-size="11.5" fill="#555555" text-anchor="middle">+ slow + critical</text>
<rect x="710" y="195" width="150" height="55" rx="9" fill="#ffffff" stroke="#999999" stroke-width="1.5" stroke-dasharray="6 4"/>
<text x="785.0" y="220.5" font-size="13.5" font-weight="700" fill="#111111" text-anchor="middle">drop most</text>
<text x="785.0" y="237.5" font-size="11.5" fill="#555555" text-anchor="middle">healthy traces</text>
<path d="M145,190 L145,220" fill="none" stroke="#b8650a" stroke-width="2" marker-end="url(#am)"/>
<text x="265.0" y="199.0" font-size="11" fill="#ffffff" stroke="#ffffff" stroke-width="3" paint-order="stroke" text-anchor="middle">no</text>
<text x="265.0" y="199.0" font-size="11" fill="#b8650a" text-anchor="middle">no</text>
<path d="M240,145 L300,175" fill="none" stroke="#555" stroke-width="2" marker-end="url(#a)"/>
<text x="276.0" y="154.0" font-size="11" fill="#ffffff" stroke="#ffffff" stroke-width="3" paint-order="stroke" text-anchor="middle">yes</text>
<text x="276.0" y="154.0" font-size="11" fill="#555" text-anchor="middle">yes</text>
<path d="M430,180 L500,185" fill="none" stroke="#555" stroke-width="2" marker-end="url(#a)"/>
<text x="471.0" y="176.5" font-size="11" fill="#ffffff" stroke="#ffffff" stroke-width="3" paint-order="stroke" text-anchor="middle">100%</text>
<text x="471.0" y="176.5" font-size="11" fill="#555" text-anchor="middle">100%</text>
<path d="M670,175 L710,140" fill="none" stroke="#b8650a" stroke-width="2" marker-end="url(#am)"/>
<path d="M670,195 L710,218" fill="none" stroke="#555" stroke-width="2" marker-end="url(#a)"/>
<text x="145" y="50" font-size="12" fill="#1d1d1d" text-anchor="middle">cheap, blind</text>
<text x="675" y="50" font-size="12" fill="#1d1d1d" text-anchor="middle">costs RAM, keeps what matters</text>
</svg>