<svg xmlns="http://www.w3.org/2000/svg" viewBox="0 0 900 360" font-family="'Red Hat Text', system-ui, sans-serif" role="img">
<defs><marker id="a" viewBox="0 0 10 10" refX="8.5" refY="5" markerWidth="9" markerHeight="9" orient="auto-start-reverse"><path d="M0,0 L10,5 L0,10 z" fill="#555"/></marker><marker id="am" viewBox="0 0 10 10" refX="8.5" refY="5" markerWidth="9" markerHeight="9" orient="auto-start-reverse"><path d="M0,0 L10,5 L0,10 z" fill="#cc0000"/></marker></defs>
<rect x="250" y="70" width="220" height="250" rx="12" fill="#f7f7f7" stroke="#ddd"/>
<text x="262" y="90" font-size="12" font-weight="700" fill="#1d1d1d">OTel Collector</text>
<rect x="520" y="70" width="170" height="250" rx="12" fill="#fafafa" stroke="#ddd"/>
<text x="532" y="90" font-size="12" font-weight="700" fill="#1d1d1d">LGTM backends</text>
<rect x="30" y="150" width="180" height="90" rx="9" fill="#fdecec" stroke="#ee0000" stroke-width="2"/>
<text x="120.0" y="185.5" font-size="13.5" font-weight="700" fill="#111111" text-anchor="middle">Python service</text>
<text x="120.0" y="202.5" font-size="11.5" fill="#555555" text-anchor="middle">OTel SDK</text>
<text x="120.0" y="217.5" font-size="11.5" fill="#555555" text-anchor="middle">traces · metrics · logs</text>
<rect x="265" y="100" width="190" height="50" rx="9" fill="#ffffff" stroke="#999999" stroke-width="1.5"/>
<text x="360.0" y="123.0" font-size="13.5" font-weight="700" fill="#111111" text-anchor="middle">receivers</text>
<text x="360.0" y="140.0" font-size="11.5" fill="#555555" text-anchor="middle">OTLP/HTTP :4318</text>
<rect x="265" y="165" width="190" height="50" rx="9" fill="#ffffff" stroke="#999999" stroke-width="1.5"/>
<text x="360.0" y="188.0" font-size="13.5" font-weight="700" fill="#111111" text-anchor="middle">processors</text>
<text x="360.0" y="205.0" font-size="11.5" fill="#555555" text-anchor="middle">memory_limiter · batch</text>
<rect x="265" y="230" width="190" height="50" rx="9" fill="#ffffff" stroke="#999999" stroke-width="1.5"/>
<text x="360.0" y="253.0" font-size="13.5" font-weight="700" fill="#111111" text-anchor="middle">exporters</text>
<text x="360.0" y="270.0" font-size="11.5" fill="#555555" text-anchor="middle">route per signal</text>
<rect x="535" y="100" width="140" height="48" rx="9" fill="#ffffff" stroke="#111111" stroke-width="2"/>
<text x="605.0" y="122.0" font-size="13.5" font-weight="700" fill="#111111" text-anchor="middle">Tempo</text>
<text x="605.0" y="139.0" font-size="11.5" fill="#555555" text-anchor="middle">traces</text>
<rect x="535" y="168" width="140" height="48" rx="9" fill="#ffffff" stroke="#111111" stroke-width="2"/>
<text x="605.0" y="190.0" font-size="13.5" font-weight="700" fill="#111111" text-anchor="middle">Mimir</text>
<text x="605.0" y="207.0" font-size="11.5" fill="#555555" text-anchor="middle">metrics</text>
<rect x="535" y="236" width="140" height="48" rx="9" fill="#ffffff" stroke="#111111" stroke-width="2"/>
<text x="605.0" y="258.0" font-size="13.5" font-weight="700" fill="#111111" text-anchor="middle">Loki</text>
<text x="605.0" y="275.0" font-size="11.5" fill="#555555" text-anchor="middle">logs</text>
<rect x="740" y="150" width="140" height="90" rx="9" fill="#111111" stroke="#111111" stroke-width="2"/>
<text x="810.0" y="193.0" font-size="13.5" font-weight="700" fill="#ffffff" text-anchor="middle">Grafana</text>
<text x="810.0" y="210.0" font-size="11.5" fill="#dddddd" text-anchor="middle">one correlated UI</text>
<path d="M210,195 L265,190" fill="none" stroke="#b8650a" stroke-width="2" marker-end="url(#am)"/>
<text x="243.5" y="186.5" font-size="11" fill="#ffffff" stroke="#ffffff" stroke-width="3" paint-order="stroke" text-anchor="middle">OTLP</text>
<text x="243.5" y="186.5" font-size="11" fill="#b8650a" text-anchor="middle">OTLP</text>
<path d="M455,124 L535,124" fill="none" stroke="#555" stroke-width="2" marker-end="url(#a)"/>
<path d="M455,192 L535,192" fill="none" stroke="#555" stroke-width="2" marker-end="url(#a)"/>
<path d="M455,255 L535,260" fill="none" stroke="#555" stroke-width="2" marker-end="url(#a)"/>
<path d="M675,124 L740,175" fill="none" stroke="#555" stroke-width="2" marker-end="url(#a)"/>
<path d="M675,192 L740,195" fill="none" stroke="#555" stroke-width="2" marker-end="url(#a)"/>
<path d="M675,260 L740,215" fill="none" stroke="#555" stroke-width="2" marker-end="url(#a)"/>
<text x="450" y="40" font-size="12" fill="#1d1d1d" text-anchor="middle">One SDK emits all three signals; the Collector decides what survives; Grafana ties them back together.</text>
</svg>